<svg id="Layer_1" height="100" width="100" xmlns="http://www.w3.org/2000/svg" viewBox="0 0 123.5 123.5"><style>.st1{fill:#323232}</style><path d="M0 0h123.5v123.5H0V0z" fill="#f0db4f"/><path class="st1" d="M76.3 100.6H60.7v13.2h-7.5V70.5h7.4v22.1h15.7V70.4h7.4v43.4h-7.4v-13.2zM87.6 113.8V70.4H97.9c2.8 0 5.6.4 8.2 1.6 5 2.3 7.9 6.4 8.6 12.5.4 3.7.1 7.2-1.4 10.6-1.2 2.9-3.2 5-5.7 6.5-2.6 1.5-5.4 2.2-8.3 2.3-1.3.1-2.7 0-4.1 0v9.9h-7.6zm7.8-17.7c2.2 0 4.3.1 6.4-.5 2.5-.7 4.2-2.3 4.9-5.3.4-1.6.4-3.2.2-4.8-.4-3.8-2.2-6.2-5.5-6.9-1.5-.3-3.1-.3-4.6-.5h-1.4v18zM23.7 113.8V70.4H34c2.8 0 5.6.4 8.2 1.6 5 2.3 7.9 6.4 8.6 12.5.4 3.7.1 7.2-1.4 10.6-1.2 2.9-3.2 5-5.7 6.5-2.6 1.5-5.4 2.2-8.3 2.3-1.3.1-2.7 0-4.1 0v9.9h-7.6zm7.7-17.7c2.2 0 4.3.1 6.4-.5 2.5-.7 4.2-2.3 4.9-5.3.4-1.6.4-3.2.2-4.8-.4-3.8-2.2-6.2-5.5-6.9-1.5-.3-3.1-.3-4.6-.5h-1.4v18z"/><path class="st1" d="M116.2 106.4c-.1.1-.2.1-.3.1v.2c-.1.2-.4.3-.7.2-.2-.1-.5-.2-.6-.4h-.7c.3.5.5 1.2.5 1.9 0 .4-.1.8-.2 1.1v3.5c0 .7-.6 1.1-1.7 1.1-.7 0-1.2-.1-1.4-.4-.8-.1-1.3-.5-1.3-1.1v-1.2h-.5v1.7c0 .7-.6 1.1-1.7 1.1-.8 0-1.3-.2-1.6-.5-.8-.1-1.2-.5-1.2-1.1V110c-.2 0-.4 0-.6.1-.3.1-.4.5-.4 1-.1.8-.2 2.1-.2 2.1 0 .4-.3.7-.9.7s-.9-.3-.9-.7v-4.9c0-1.6 0-2.8 2.4-3.2.2-.2.5-.5.8-.7 0 0 .5-.3 1-.1.1 0 .2.1.3.1.1 0 .2-.1.2-.1.1 0 .6-.2 1.1.1.2.1.3.3.5.4h2.5c1.3 0 2.3.4 3 1.1h1.2c.1-.2.4-.3.5-.4.3-.1.6-.1.7.1.1.1.1.2 0 .3.3.1.4.2.4.3-.1.1-.1.2-.2.2z"/></svg>